<svg width="53" height="20" viewBox="0 0 53 20" fill="none" xmlns="http://www.w3.org/2000/svg">
<path d="M6.50201 19.0982C8.81925 19.0982 10.7083 17.8255 11.6402 15.9673V18.8437H13.1263V12.6328C13.1263 9.01821 10.3053 6.21821 6.70351 6.21821C3.05134 6.21821 0.305908 9.12003 0.305908 12.6328C0.305908 16.1964 2.97577 19.0982 6.50201 19.0982ZM6.70351 17.5964C4.00846 17.5964 1.86753 15.3564 1.86753 12.6582C1.86753 9.96003 4.00846 7.72003 6.70351 7.72003C9.42375 7.72003 11.5647 9.96003 11.5647 12.6582C11.5647 15.3564 9.42375 17.5964 6.70351 17.5964Z" fill="#DAC5A7"/>
<path d="M19.6121 18.8437V11.3091C19.6121 9.1964 20.7708 7.8473 22.6346 7.8473C23.3399 7.8473 24.0199 8.02549 24.6244 8.38185V6.77821C23.9947 6.47276 23.2643 6.32003 22.5087 6.32003C19.6877 6.32003 18.0505 8.35639 18.0505 11.2328V18.8437H19.6121Z" fill="#DAC5A7"/>
<path d="M28.5238 3.52003C29.1535 3.52003 29.6321 3.01094 29.6321 2.34912C29.6321 1.6873 29.1535 1.17821 28.5238 1.17821C27.8942 1.17821 27.3904 1.6873 27.3904 2.34912C27.3904 3.01094 27.8942 3.52003 28.5238 3.52003ZM27.743 6.49821V18.8437H29.3047V6.49821H27.743Z" fill="#DAC5A7"/>
<path d="M36.624 18.8437V13.32H38.4123C38.5383 13.7019 38.7398 14.0837 39.0672 14.4146L43.4246 18.8437H45.4648L40.1503 13.4218C39.8984 13.1673 39.7473 12.9128 39.7473 12.6582C39.7473 12.3782 39.8984 12.1491 40.1503 11.8946L45.49 6.49821H43.5254L39.1176 10.9528C38.8153 11.2582 38.5887 11.5891 38.4627 11.92H36.624V0.796394H35.0624V18.8437H36.624Z" fill="#DAC5A7"/>
<path d="M50.5166 19.0473C51.1462 19.0473 51.65 18.5382 51.65 17.8764C51.65 17.24 51.1462 16.7564 50.5166 16.7564C49.8869 16.7564 49.3831 17.24 49.3831 17.8764C49.3831 18.5382 49.8869 19.0473 50.5166 19.0473Z" fill="#DAC5A7"/>
</svg>
