<svg width="750" height="439" viewBox="0 0 750 439" fill="none" xmlns="http://www.w3.org/2000/svg">
<rect width="750" height="439" fill="#DBEAFE"/>
<path d="M0 0.585449H125.628V439H0V0.585449Z" fill="#BFDBFE"/>
<path d="M15.0752 42.1441C15.0752 38.2649 18.4499 35.1201 22.6129 35.1201H103.015C107.178 35.1201 110.553 38.2649 110.553 42.1441V42.1441C110.553 46.0234 107.178 49.1681 103.015 49.1681H22.6129C18.4499 49.1681 15.0752 46.0234 15.0752 42.1441V42.1441Z" fill="#93C5FD"/>
<path d="M45.2261 91.312C45.2261 89.3724 46.9134 87.8 48.9949 87.8H111.809C113.89 87.8 115.578 89.3724 115.578 91.312V91.312C115.578 93.2517 113.89 94.824 111.809 94.824H48.9949C46.9134 94.824 45.2261 93.2517 45.2261 91.312V91.312Z" fill="white"/>
<path d="M45.2261 128.773C45.2261 126.834 46.9134 125.261 48.9949 125.261H92.3366C94.4181 125.261 96.1055 126.834 96.1055 128.773V128.773C96.1055 130.713 94.4181 132.285 92.3366 132.285H48.9949C46.9134 132.285 45.2261 130.713 45.2261 128.773V128.773Z" fill="white"/>
<path d="M45.2261 166.235C45.2261 164.295 46.9134 162.723 48.9949 162.723H103.015C105.096 162.723 106.784 164.295 106.784 166.235V166.235C106.784 168.174 105.096 169.747 103.015 169.747H48.9949C46.9134 169.747 45.2261 168.174 45.2261 166.235V166.235Z" fill="white"/>
<path fill-rule="evenodd" clip-rule="evenodd" d="M25.1254 98.9214C29.6353 98.9214 33.2913 95.5146 33.2913 91.3121C33.2913 87.1096 29.6353 83.7028 25.1254 83.7028C20.6156 83.7028 16.9596 87.1096 16.9596 91.3121C16.9596 95.5146 20.6156 98.9214 25.1254 98.9214ZM25.1254 100.677C30.676 100.677 35.1757 96.4844 35.1757 91.3121C35.1757 86.1398 30.676 81.9468 25.1254 81.9468C19.5748 81.9468 15.0752 86.1398 15.0752 91.3121C15.0752 96.4844 19.5748 100.677 25.1254 100.677Z" fill="#93C5FD"/>
<path d="M165.829 42.1441C165.829 39.5579 168.079 37.4614 170.854 37.4614H243.719C246.494 37.4614 248.744 39.5579 248.744 42.1441V42.1441C248.744 44.7303 246.494 46.8268 243.719 46.8268H170.854C168.079 46.8268 165.829 44.7303 165.829 42.1441V42.1441Z" fill="#BFDBFE"/>
<path fill-rule="evenodd" clip-rule="evenodd" d="M299.309 230.95C299.346 227.611 302.192 224.768 305.851 224.768C308.096 224.768 309.748 225.804 310.802 226.779C311.095 227.051 311.347 227.321 311.558 227.571C311.769 227.321 312.021 227.051 312.314 226.779C313.368 225.804 315.02 224.768 317.265 224.768C320.924 224.768 323.77 227.611 323.807 230.95L323.807 230.95C323.876 237.461 318.262 241.966 312.618 245.536C312.305 245.734 311.936 245.84 311.558 245.84C311.18 245.84 310.811 245.734 310.498 245.536C304.854 241.966 299.239 237.461 299.309 230.95L299.309 230.95ZM312.4 229.553C312.24 229.849 311.914 230.036 311.558 230.036C311.202 230.036 310.876 229.849 310.716 229.553C310.716 229.553 310.716 229.552 310.715 229.551C310.714 229.549 310.712 229.545 310.71 229.541C310.708 229.538 310.706 229.535 310.705 229.532C310.694 229.514 310.676 229.483 310.652 229.443C310.602 229.363 310.525 229.243 310.421 229.098C310.21 228.804 309.894 228.414 309.474 228.025C308.63 227.244 307.428 226.524 305.851 226.524C303.295 226.524 301.221 228.526 301.194 230.967M312.4 229.553C312.4 229.553 312.4 229.552 312.401 229.551C312.402 229.548 312.406 229.541 312.411 229.532C312.422 229.514 312.439 229.483 312.464 229.443C312.513 229.363 312.591 229.243 312.695 229.098C312.906 228.804 313.222 228.414 313.642 228.025C314.486 227.244 315.688 226.524 317.265 226.524C319.821 226.524 321.895 228.525 321.922 230.967C321.981 236.454 317.252 240.482 311.559 244.084L311.558 244.084L311.557 244.084C305.863 240.483 301.134 236.454 301.194 230.968" fill="white"/>
<path d="M165.829 235.304C165.829 232.718 168.079 230.621 170.854 230.621H204.774C207.549 230.621 209.799 232.718 209.799 235.304V235.304C209.799 237.89 207.549 239.987 204.774 239.987H170.854C168.079 239.987 165.829 237.89 165.829 235.304V235.304Z" fill="#BFDBFE"/>
<path d="M219.849 235.304C219.849 232.718 222.099 230.621 224.874 230.621H281.407C284.182 230.621 286.432 232.718 286.432 235.304V235.304C286.432 237.89 284.182 239.987 281.407 239.987H224.874C222.099 239.987 219.849 237.89 219.849 235.304V235.304Z" fill="#BFDBFE"/>
<path d="M165.829 280.96C165.829 279.02 167.516 277.448 169.598 277.448H222.362C224.443 277.448 226.131 279.02 226.131 280.96V280.96C226.131 282.9 224.443 284.472 222.362 284.472H169.598C167.516 284.472 165.829 282.9 165.829 280.96V280.96Z" fill="white"/>
<path d="M165.829 297.349C165.829 295.41 167.516 293.837 169.598 293.837H250.628C252.71 293.837 254.397 295.41 254.397 297.349V297.349C254.397 299.289 252.71 300.861 250.628 300.861H169.598C167.516 300.861 165.829 299.289 165.829 297.349V297.349Z" fill="white"/>
<path d="M236.181 280.96C236.181 279.02 237.868 277.448 239.95 277.448H302.764C304.845 277.448 306.532 279.02 306.532 280.96V280.96C306.532 282.9 304.845 284.472 302.764 284.472H239.95C237.868 284.472 236.181 282.9 236.181 280.96V280.96Z" fill="white"/>
<path d="M165.829 87.8001C165.829 85.8605 167.516 84.2881 169.598 84.2881H222.362C224.443 84.2881 226.131 85.8605 226.131 87.8001V87.8001C226.131 89.7397 224.443 91.3121 222.362 91.3121H169.598C167.516 91.3121 165.829 89.7397 165.829 87.8001V87.8001Z" fill="white"/>
<path d="M165.829 104.189C165.829 102.25 167.516 100.677 169.598 100.677H299.623C301.705 100.677 303.392 102.25 303.392 104.189V104.189C303.392 106.129 301.705 107.701 299.623 107.701H169.598C167.516 107.701 165.829 106.129 165.829 104.189V104.189Z" fill="white"/>
<path d="M236.181 87.8001C236.181 85.8605 237.868 84.2881 239.95 84.2881H383.166C385.247 84.2881 386.934 85.8605 386.934 87.8001V87.8001C386.934 89.7397 385.247 91.3121 383.166 91.3121H239.95C237.868 91.3121 236.181 89.7397 236.181 87.8001V87.8001Z" fill="white"/>
<path fill-rule="evenodd" clip-rule="evenodd" d="M33.9197 121.164H17.588V136.383H33.9197V121.164ZM15.7036 119.408L15.7036 138.139H35.8041V119.408H15.7036Z" fill="#60A5FA"/>
<g clip-path="url(#clip0_1134_3435)">
<rect x="435.302" y="42.144" width="125.628" height="160.381" rx="20" fill="white"/>
<path d="M518.986 202.664C518.986 243.248 483.972 276.148 440.781 276.148C397.589 276.148 362.576 243.248 362.576 202.664C362.576 162.08 397.589 129.18 440.781 129.18C483.972 129.18 518.986 162.08 518.986 202.664Z" fill="#FACC15"/>
<path fill-rule="evenodd" clip-rule="evenodd" d="M578.37 104.605L537.507 66.5272L496.644 104.605L537.507 142.684L578.37 104.605ZM537.507 63.2161L493.091 104.605L537.507 145.995L581.923 104.605L537.507 63.2161Z" fill="#BFDBFE"/>
</g>
<path d="M25.7539 158.04L35.8041 174.261H15.7036L25.7539 158.04Z" fill="#93C5FD"/>
<rect x="581.03" y="42.144" width="125.628" height="118.237" rx="20" fill="white"/>
<path fill-rule="evenodd" clip-rule="evenodd" d="M637.543 130.305C650.068 130.305 660.135 120.931 660.135 109.465C660.135 97.9997 650.068 88.6255 637.543 88.6255C625.018 88.6255 614.95 97.9997 614.95 109.465C614.95 120.931 625.018 130.305 637.543 130.305ZM637.543 136.158C653.489 136.158 666.417 124.207 666.417 109.465C666.417 94.7231 653.489 82.7722 637.543 82.7722C621.596 82.7722 608.668 94.7231 608.668 109.465C608.668 124.207 621.596 136.158 637.543 136.158Z" fill="#BFDBFE"/>
<path d="M650.666 101.016L658.973 72.1275L681.667 93.2756L650.666 101.016Z" fill="#FACC15"/>
<g clip-path="url(#clip1_1134_3435)">
<rect x="435.302" y="221.256" width="125.628" height="179.112" rx="20" fill="white"/>
<path fill-rule="evenodd" clip-rule="evenodd" d="M553.078 423.196C588.29 423.196 616.835 396.597 616.835 363.785C616.835 330.973 588.29 304.373 553.078 304.373C517.867 304.373 489.322 330.973 489.322 363.785C489.322 396.597 517.867 423.196 553.078 423.196ZM553.078 429.049C591.759 429.049 623.116 399.829 623.116 363.785C623.116 327.74 591.759 298.52 553.078 298.52C514.397 298.52 483.041 327.74 483.041 363.785C483.041 399.829 514.397 429.049 553.078 429.049Z" fill="#FACC15"/>
<path d="M501.257 274.654C501.257 285.718 491.554 294.688 479.586 294.688C467.617 294.688 457.915 285.718 457.915 274.654C457.915 263.59 467.617 254.62 479.586 254.62C491.554 254.62 501.257 263.59 501.257 274.654Z" fill="#BFDBFE"/>
<path fill-rule="evenodd" clip-rule="evenodd" d="M479.586 292.932C490.528 292.932 499.372 284.735 499.372 274.654C499.372 264.573 490.528 256.376 479.586 256.376C468.644 256.376 459.799 264.573 459.799 274.654C459.799 284.735 468.644 292.932 479.586 292.932ZM479.586 294.688C491.554 294.688 501.257 285.718 501.257 274.654C501.257 263.59 491.554 254.62 479.586 254.62C467.617 254.62 457.915 263.59 457.915 274.654C457.915 285.718 467.617 294.688 479.586 294.688Z" fill="#BFDBFE"/>
</g>
<g clip-path="url(#clip2_1134_3435)">
<rect x="581.03" y="179.112" width="125.628" height="200.184" rx="20" fill="white"/>
<path d="M735.553 323.397C735.553 337.782 723.179 349.444 707.915 349.444C692.65 349.444 680.276 337.782 680.276 323.397C680.276 309.011 692.65 297.349 707.915 297.349C723.179 297.349 735.553 309.011 735.553 323.397Z" fill="white"/>
<path fill-rule="evenodd" clip-rule="evenodd" d="M707.915 347.688C722.118 347.688 733.668 336.831 733.668 323.397C733.668 309.962 722.118 299.105 707.915 299.105C693.711 299.105 682.161 309.962 682.161 323.397C682.161 336.831 693.711 347.688 707.915 347.688ZM707.915 349.444C723.179 349.444 735.553 337.782 735.553 323.397C735.553 309.011 723.179 297.349 707.915 297.349C692.65 297.349 680.276 309.011 680.276 323.397C680.276 337.782 692.65 349.444 707.915 349.444Z" fill="#BFDBFE"/>
<path d="M685.302 249.645C685.302 268.879 668.709 284.472 648.241 284.472C627.774 284.472 611.181 268.879 611.181 249.645C611.181 230.41 627.774 214.817 648.241 214.817C668.709 214.817 685.302 230.41 685.302 249.645Z" fill="#BFDBFE"/>
<path d="M604.272 316.665L606.044 321.416L611.441 321.519L607.139 324.557L608.702 329.372L604.272 326.499L599.841 329.372L601.404 324.557L597.103 321.519L602.5 321.416L604.272 316.665Z" fill="#FACC15"/>
<path d="M630.025 316.665L631.797 321.416L637.194 321.519L632.893 324.557L634.456 329.372L630.025 326.499L625.595 329.372L627.158 324.557L622.856 321.519L628.253 321.416L630.025 316.665Z" fill="#FACC15"/>
<path d="M655.779 316.665L657.551 321.416L662.948 321.519L658.647 324.557L660.21 329.372L655.779 326.499L651.349 329.372L652.912 324.557L648.61 321.519L654.007 321.416L655.779 316.665Z" fill="#FACC15"/>
<path d="M681.533 316.665L683.305 321.416L688.702 321.519L684.401 324.557L685.964 329.372L681.533 326.499L677.102 329.372L678.666 324.557L674.364 321.519L679.761 321.416L681.533 316.665Z" fill="#FACC15"/>
<path d="M707.286 316.665L709.059 321.416L714.455 321.519L710.154 324.557L711.717 329.372L707.286 326.499L702.856 329.372L704.419 324.557L700.118 321.519L705.514 321.416L707.286 316.665Z" fill="#FACC15"/>
</g>
<defs>
<clipPath id="clip0_1134_3435">
<rect x="435.302" y="42.144" width="125.628" height="160.381" rx="20" fill="white"/>
</clipPath>
<clipPath id="clip1_1134_3435">
<rect x="435.302" y="221.256" width="125.628" height="179.112" rx="20" fill="white"/>
</clipPath>
<clipPath id="clip2_1134_3435">
<rect x="581.03" y="179.112" width="125.628" height="200.184" rx="20" fill="white"/>
</clipPath>
</defs>
</svg>
