<svg width="95" height="22" viewBox="0 0 95 22" fill="none" xmlns="http://www.w3.org/2000/svg">
<path d="M0 21.375H21.375V2.99959e-08H0V21.375ZM17.2609 8.63083H12.7442V4.11417H17.2609V8.63083ZM4.11333 4.11417H8.63252V12.7442H17.2609V17.2608H4.11333V4.11417ZM35.2942 2.99959e-08C33.1804 2.99959e-08 31.114 0.626817 29.3565 1.80117C27.5989 2.97553 26.2291 4.64469 25.4202 6.59758C24.6113 8.5505 24.3997 10.6993 24.812 12.7725C25.2244 14.8457 26.2423 16.75 27.7369 18.2447C29.2316 19.7394 31.1359 20.7572 33.2091 21.1697C35.2824 21.582 37.4312 21.3704 39.3841 20.5615C41.337 19.7526 43.0061 18.3827 44.1805 16.6252C45.3549 14.8676 45.9817 12.8012 45.9817 10.6875C45.9784 7.854 44.8513 5.13753 42.8477 3.13396C40.8441 1.13038 38.1277 0.00330836 35.2942 2.99959e-08ZM35.2942 17.2608C33.9941 17.2608 32.7232 16.8753 31.6422 16.153C30.5613 15.4307 29.7187 14.4042 29.2212 13.203C28.7237 12.0019 28.5935 10.6802 28.8471 9.40508C29.1008 8.13 29.7269 6.95875 30.6461 6.03945C31.5654 5.12016 32.7367 4.49411 34.0118 4.24048C35.2869 3.98684 36.6085 4.11702 37.8097 4.61453C39.0108 5.11205 40.0374 5.95457 40.7597 7.03558C41.482 8.1165 41.8675 9.38742 41.8675 10.6875C41.8649 12.4301 41.1714 14.1005 39.9393 15.3327C38.7071 16.5648 37.0367 17.2582 35.2942 17.2608ZM84.2267 2.99959e-08C82.1125 -0.000158303 80.0464 0.626508 78.2888 1.80077C76.5311 2.97502 75.1612 4.64412 74.3521 6.597C73.5431 8.54983 73.3313 10.6988 73.7436 12.772C74.1559 14.8452 75.1737 16.7497 76.6684 18.2444C78.1629 19.7392 80.0673 20.7572 82.1409 21.1696C84.2134 21.582 86.3625 21.3704 88.3159 20.5616C90.2684 19.7527 91.9375 18.3828 93.1117 16.6252C94.2867 14.8677 94.9134 12.8013 94.9134 10.6875C94.91 7.85417 93.7834 5.1378 91.78 3.13425C89.7767 1.13069 87.06 0.00353336 84.2267 2.99959e-08ZM84.2267 17.2608C82.9267 17.261 81.6559 16.8756 80.5745 16.1534C79.4934 15.4312 78.6508 14.4047 78.1531 13.2036C77.6554 12.0025 77.5252 10.6807 77.7787 9.40558C78.0323 8.1305 78.6583 6.95917 79.5775 6.03975C80.4968 5.12037 81.6684 4.49423 82.9434 4.24053C84.2184 3.98683 85.54 4.11696 86.7409 4.61446C87.9425 5.11195 88.9692 5.95447 89.6917 7.0355C90.4134 8.1165 90.7992 9.38742 90.7992 10.6875C90.7967 12.4299 90.1034 14.1002 88.8709 15.3323C87.6392 16.5645 85.9692 17.258 84.2267 17.2608ZM59.76 2.99959e-08C57.6462 2.99959e-08 55.5799 0.626817 53.8224 1.80117C52.0648 2.97553 50.6949 4.64469 49.886 6.59758C49.0771 8.5505 48.8655 10.6993 49.2779 12.7725C49.6903 14.8457 50.7081 16.75 52.2028 18.2447C53.6974 19.7394 55.6018 20.7572 57.6749 21.1697C59.7481 21.582 61.897 21.3704 63.8499 20.5615C65.8028 19.7526 67.4719 18.3827 68.6464 16.6252C69.8207 14.8676 70.4475 12.8012 70.4475 10.6875C70.4442 7.854 69.3171 5.13753 67.3135 3.13396C65.3099 1.13038 62.5935 0.00330836 59.76 2.99959e-08ZM59.76 17.2608C58.5487 17.2614 57.3609 16.9273 56.3274 16.2954C55.2941 15.6635 54.4554 14.7584 53.9039 13.6799C53.3526 12.6014 53.1099 11.3915 53.2027 10.1838C53.2955 8.97608 53.7202 7.8175 54.4299 6.83592C55.1397 5.85438 56.1068 5.08801 57.2246 4.62143C58.3424 4.15483 59.5674 4.00618 60.7644 4.19187C61.9614 4.37756 63.0837 4.89036 64.0076 5.67368C64.9315 6.457 65.621 7.48042 66 8.63083H59.76V12.7442H66C65.5659 14.0569 64.7296 15.1998 63.6095 16.0104C62.4895 16.8212 61.1427 17.2586 59.76 17.2608Z" fill="#DAC5A7"/>
</svg>
